<svg width="24" height="24" viewBox="0 0 24 24" fill="none" xmlns="http://www.w3.org/2000/svg">
<circle cx="12" cy="12" r="12" fill="#F05825"/>
<path d="M17.381 11.3333H12.119V5.66667C12.119 5.29868 11.8423 5 11.5 5C11.1577 5 10.881 5.29868 10.881 5.66667V11.3333H5.61905C5.27671 11.3333 5 11.632 5 12C5 12.368 5.27671 12.6667 5.61905 12.6667H10.881V18.3333C10.881 18.7013 11.1577 19 11.5 19C11.8423 19 12.119 18.7013 12.119 18.3333V12.6667H17.381C17.7233 12.6667 18 12.368 18 12C18 11.632 17.7233 11.3333 17.381 11.3333Z" fill="white"/>
</svg>
