<svg width="36" height="32" viewBox="0 0 36 32" fill="none" xmlns="http://www.w3.org/2000/svg">
<path d="M29.7162 2.01235C28.9429 3.77042 30.9131 3.30161 31.4057 3.77042C31.8982 4.23924 31.849 5.8051 31.78 6.799C31.7554 7.18812 31.519 7.42253 31.1151 7.48817C30.9919 7.50692 30.8589 7.51629 30.7358 7.51629C29.0463 7.51629 27.3568 7.52098 25.6674 7.51629C25.5294 6.20829 25.4703 4.8909 26.5047 3.98608C26.9135 3.62978 27.4504 3.39537 27.9331 3.13752C27.9775 1.42633 29.2089 0.188642 30.9624 0.14176C32.578 0.0995663 33.9226 1.2388 34.0704 2.71089C34.1492 3.49851 34.1246 4.30019 34.1295 5.09718C34.1344 7.23031 34.1295 9.36344 34.1295 11.4966C34.1295 11.6278 34.1295 11.7591 34.1295 11.9232C34.7255 11.9701 35.4003 11.8107 35.6811 12.5186C35.6811 14.7971 35.6811 17.0708 35.6811 19.3493C35.5432 19.9869 35.4644 20.6386 35.2575 21.2527C34.1492 24.6282 31.7899 26.8176 28.2336 27.8303C27.9824 27.9006 27.9134 28.0084 27.9233 28.2428C27.9479 29.2086 27.9184 30.1744 27.9282 31.1401C26.3816 31.1448 24.83 31.1495 23.2784 31.1354C23.2686 30.1603 23.2735 29.2039 23.2735 28.2006C20.1753 28.2006 17.1067 28.2006 13.9888 28.2006C13.9888 28.4585 13.9888 28.7116 13.9888 28.9601C13.9888 29.368 13.9937 29.7759 13.9888 30.1884C13.9839 30.9385 13.6194 31.2011 12.7278 31.1307C12.0038 31.0745 11.2698 31.0839 10.5458 31.1354C9.69858 31.1917 9.34394 30.9338 9.33902 30.2165C9.33409 29.5414 9.33902 28.871 9.33902 28.1819C8.83168 28.0975 8.33912 28.0412 7.86134 27.924C3.52682 26.8551 0.906404 24.1172 0.0641284 19.7337C-0.0343835 17.474 0.00994655 15.2096 0.00994655 12.9452C0.00994655 12.1904 0.275932 11.9373 1.08373 11.9373C11.4078 11.9373 21.7318 11.9373 32.0558 11.9373C32.2135 11.9373 32.711 11.745 32.8932 11.745C32.9375 11.1262 32.8932 9.40095 32.8932 9.40095V7.05685C33.3759 2.36397 32.0903 0.615268 29.7162 2.01235ZM34.1147 13.4422H1.57136C1.57136 13.9344 1.57136 14.4033 1.57136 14.8815C1.68465 14.8861 1.77824 14.8955 1.8669 14.8955C2.51707 14.8955 3.16725 14.8861 3.81743 14.9002C4.28536 14.9096 4.6006 15.219 4.60552 15.6269C4.60552 16.0347 4.29521 16.3348 3.82728 16.3629C3.6204 16.3723 3.4086 16.3676 3.20173 16.3676C2.65991 16.3676 2.1181 16.3676 1.55658 16.3676C1.55658 17.174 1.5024 17.9382 1.57136 18.693C1.64524 19.49 1.72898 20.3104 1.99004 21.0652C3.1771 24.4969 6.35903 26.6863 10.1517 26.7004C15.5994 26.7238 21.0471 26.752 26.4949 26.677C34.4792 24.0141 34.2083 20.2026 34.1197 16.4286C34.1197 16.4145 34.0901 16.3957 34.0606 16.3629C33.9276 16.3629 33.7749 16.3629 33.6271 16.3629C25.3718 16.3629 17.1116 16.3629 8.85631 16.3629C8.72825 16.3629 8.60018 16.3676 8.47212 16.3582C8.02881 16.3207 7.72835 16.016 7.73328 15.6222C7.7382 15.2378 8.02881 14.9471 8.45734 14.9049C8.59526 14.8908 8.73809 14.8955 8.87601 14.8955C17.1461 14.8955 25.4112 14.8955 33.6813 14.8955C33.8241 14.8955 33.9719 14.8955 34.1197 14.8955C34.1147 14.3798 34.1147 13.9204 34.1147 13.4422ZM28.9429 7.52098C31.8982 7.52098 30.061 4.50178 28.6424 4.55804C27.1155 4.61899 25.9875 7.52098 28.9429 7.52098ZM12.4027 29.6352V28.1959H10.8955V29.6352H12.4027ZM26.3471 28.2053H24.8349V29.6258H26.3471V28.2053Z" fill="#333333"/>
</svg>
