<svg width="35" height="22" viewBox="0 0 35 22" fill="none" xmlns="http://www.w3.org/2000/svg">
<path d="M33.4733 18.0809C33.4733 17.2043 33.4733 16.3591 33.4733 15.4943C22.824 15.4943 12.1886 15.4943 1.53476 15.4943C1.53476 16.3552 1.53476 17.2003 1.53476 18.0809C1.66323 18.0809 1.78711 18.0809 1.90641 18.0809C3.96651 18.0809 6.0312 18.0809 8.0913 18.0809C8.19224 18.0809 8.29779 18.0769 8.39873 18.0848C8.83002 18.1202 9.13743 18.3914 9.13743 18.7295C9.13743 19.0833 8.82084 19.3623 8.36661 19.3741C7.74261 19.3859 7.11401 19.3781 6.48543 19.3781C6.36155 19.3781 6.24225 19.3781 6.08166 19.3781C6.08166 19.9716 6.08166 20.5377 6.08166 21.0998C6.08166 21.772 5.82016 21.9921 5.04016 21.9961C4.19593 21.9961 3.3517 21.9961 2.51205 21.9961C1.80547 21.9961 1.51642 21.7484 1.51642 21.1431C1.51183 20.5691 1.51642 19.9952 1.51642 19.3781C1.26407 19.3781 1.03924 19.3859 0.819004 19.3781C0.309713 19.3623 0.0114705 19.1186 0.00688231 18.6784C-0.0022941 17.4087 -0.0022941 16.139 0.00688231 14.8732C0.0114705 14.4408 0.309717 14.1971 0.823597 14.1696C1.03924 14.1578 1.25489 14.1696 1.51642 14.1696C1.51642 14.0399 1.51642 13.9259 1.51642 13.8119C1.53019 12.7309 1.51183 11.6459 1.57607 10.5649C1.64489 9.35813 2.78276 8.17493 4.14545 7.8408C4.47122 7.76218 4.58593 7.65211 4.58134 7.3455C4.55381 6.13477 4.56298 4.92405 4.57215 3.71332C4.58592 2.44756 5.37509 1.43338 6.74696 1.05208C7.38931 0.875192 8.08672 0.831951 8.76119 0.757264C10.4864 0.564648 12.2207 0.391687 13.9459 0.206934C15.9647 -0.0131984 17.9881 -0.0800242 20.0115 0.116522C22.535 0.36024 25.0539 0.619681 27.5682 0.918432C29.3255 1.12677 30.4038 2.25102 30.4129 3.77622C30.4221 4.9948 30.4129 6.21732 30.4129 7.43591C30.4129 7.52239 30.4129 7.60887 30.4129 7.6639C30.8764 7.84866 31.3352 7.98231 31.7298 8.20244C32.9319 8.87463 33.4733 9.86522 33.4825 11.0799C33.4916 12.0941 33.4825 13.1082 33.4825 14.1696C33.7119 14.1696 33.9229 14.1657 34.134 14.1696C34.6983 14.1892 34.9966 14.4408 34.9966 14.9243C35.0011 16.1547 35.0011 17.3851 34.9966 18.6155C34.9966 19.1383 34.7029 19.3781 34.0881 19.3859C33.9 19.3899 33.7073 19.3859 33.4825 19.3859C33.4825 19.9716 33.4825 20.5259 33.4825 21.0802C33.4825 21.7838 33.2255 22 32.3951 22C31.5646 22 30.7295 22 29.8991 22C29.1879 21.9961 28.9126 21.7563 28.9126 21.1431C28.9126 20.5691 28.9126 19.9952 28.9126 19.382C28.7428 19.382 28.596 19.382 28.4538 19.382C23.393 19.382 18.3368 19.382 13.276 19.382C13.1154 19.382 12.9548 19.3859 12.7988 19.3623C12.4593 19.3152 12.2161 19.0675 12.1932 18.7727C12.1702 18.4897 12.3859 18.2067 12.7162 18.132C12.8906 18.0927 13.0741 18.0887 13.2576 18.0887C19.8417 18.0848 26.4304 18.0887 33.0145 18.0887C33.1613 18.0809 33.2989 18.0809 33.4733 18.0809ZM3.08099 14.146C12.7025 14.146 22.3102 14.146 31.9316 14.146C31.9408 14.0949 31.9592 14.0595 31.9592 14.0241C31.9592 12.9903 31.9729 11.9565 31.9454 10.9187C31.9362 10.6357 31.8582 10.3291 31.716 10.0775C31.2618 9.26772 30.4542 8.94932 29.4357 8.94932C21.4843 8.94932 13.5283 8.94932 5.57697 8.94932C5.50815 8.94932 5.43932 8.94932 5.3705 8.94932C4.15462 8.99649 3.13606 9.71978 3.09477 10.6593C3.03971 11.8071 3.08099 12.9589 3.08099 14.146ZM19.7867 7.63246C19.7867 7.05461 19.7867 6.50035 19.7867 5.94609C19.7867 5.25425 20.0436 5.03411 20.8511 5.03411C22.6726 5.03411 24.4988 5.03411 26.3203 5.03411C27.1507 5.03411 27.4077 5.25425 27.4077 5.95395C27.4077 6.50821 27.4077 7.06247 27.4077 7.63246C27.917 7.63246 28.3896 7.63246 28.8713 7.63246C28.8851 7.58529 28.9034 7.54598 28.9034 7.5106C28.9034 6.22125 28.9264 4.93191 28.8942 3.6465C28.8713 2.821 28.2978 2.30605 27.3388 2.19598C25.4439 1.97978 23.5444 1.78717 21.6495 1.57097C19.75 1.35476 17.8367 1.1936 15.928 1.35083C13.175 1.57883 10.4313 1.8933 7.68754 2.19205C6.64601 2.30605 6.10004 2.8721 6.10004 3.76835C6.09545 4.96729 6.10004 6.17015 6.10004 7.36908C6.10004 7.45556 6.1092 7.53811 6.11838 7.62853C6.62308 7.62853 7.10944 7.62853 7.61873 7.62853C7.61873 7.0153 7.61414 6.42173 7.61873 5.82816C7.62332 5.31321 7.89861 5.04198 8.47672 5.03804C10.4497 5.02625 12.418 5.02625 14.3909 5.03804C14.9323 5.04198 15.1984 5.28569 15.2351 5.74954C15.2489 5.89499 15.2397 6.04043 15.2397 6.18981C15.2397 6.66545 15.2397 7.14109 15.2397 7.63246C16.7538 7.63246 18.2404 7.63246 19.7867 7.63246ZM9.15577 7.63246C10.6882 7.63246 12.1748 7.63246 13.6706 7.63246C13.6706 7.20005 13.6706 6.78731 13.6706 6.37063C12.1519 6.37063 10.6561 6.37063 9.15577 6.37063C9.15577 6.80303 9.15577 7.20792 9.15577 7.63246ZM25.8523 6.3667C24.3382 6.3667 22.8424 6.3667 21.342 6.3667C21.342 6.7991 21.342 7.21185 21.342 7.62459C22.8607 7.62459 24.3565 7.62459 25.8523 7.62459C25.8523 7.19612 25.8523 6.79124 25.8523 6.3667ZM4.54922 20.6713C4.54922 20.2232 4.54922 19.8105 4.54922 19.4017C4.04452 19.4017 3.56274 19.4017 3.07639 19.4017C3.07639 19.838 3.07639 20.2468 3.07639 20.6713C3.57651 20.6713 4.0491 20.6713 4.54922 20.6713ZM31.9408 19.3977C31.4269 19.3977 30.9452 19.3977 30.4588 19.3977C30.4588 19.8301 30.4588 20.2429 30.4588 20.6635C30.9635 20.6635 31.4453 20.6635 31.9408 20.6635C31.9408 20.2389 31.9408 19.8341 31.9408 19.3977Z" fill="#333333"/>
</svg>
