<svg width="26" height="33" viewBox="0 0 26 33" fill="none" xmlns="http://www.w3.org/2000/svg">
<path d="M0.82881 32.2921C0.274576 32.1304 0.0917969 31.8114 0.0917969 31.3756C0.097693 21.2226 0.097693 11.074 0.097693 0.920963C0.097693 0.260565 0.433771 0 1.28871 0C9.09514 0 16.9016 0 24.708 0C25.563 0 25.899 0.260565 25.899 0.920963C25.899 11.074 25.899 21.2226 25.9049 31.3756C25.9049 31.8069 25.7221 32.1304 25.1679 32.2876C17.0549 32.2921 8.94185 32.2921 0.82881 32.2921ZM1.96676 1.41514C1.96676 5.1529 1.96676 8.87719 1.96676 12.6329C3.06933 12.6329 4.14242 12.6329 5.21551 12.6329C5.42187 12.6329 5.62824 12.6419 5.8287 12.6734C6.25322 12.7407 6.54803 13.0328 6.53624 13.3562C6.52444 13.6707 6.23553 13.9447 5.82281 14.0031C5.62234 14.0346 5.41008 14.0436 5.20961 14.0436C4.13652 14.0481 3.06343 14.0436 1.96086 14.0436C1.96086 19.6727 1.96086 25.2658 1.96086 30.868C9.33099 30.868 16.6716 30.868 24.03 30.868C24.03 25.2569 24.03 19.6727 24.03 14.0436C23.8472 14.0436 23.688 14.0436 23.5229 14.0436C19.5371 14.0436 15.5514 14.0436 11.5656 14.0436C11.3475 14.0436 11.1234 14.0346 10.9111 13.9986C10.522 13.9357 10.2567 13.6617 10.2449 13.3562C10.2331 13.0372 10.4984 12.7497 10.9052 12.6823C11.1175 12.6464 11.3416 12.6329 11.5597 12.6329C15.5455 12.6284 19.5312 12.6329 23.517 12.6329C23.6762 12.6329 23.8413 12.6329 24.0182 12.6329C24.0182 8.87269 24.0182 5.14841 24.0182 1.41514C16.6598 1.41514 9.33099 1.41514 1.96676 1.41514Z" fill="#333333"/>
<path d="M22.2018 7.01919C22.2018 7.89972 22.2076 8.78475 22.2018 9.66528C22.1959 10.2673 21.8598 10.5278 21.0638 10.5278C20.2914 10.5323 19.519 10.5323 18.7466 10.5278C18.0155 10.5233 17.6441 10.2538 17.6441 9.69673C17.6382 7.9132 17.6382 6.12519 17.6441 4.34166C17.6441 3.78908 17.9919 3.52402 18.7054 3.51504C19.519 3.50605 20.3327 3.50605 21.1463 3.51504C21.8657 3.52402 22.1959 3.7801 22.2018 4.33717C22.2076 5.23118 22.2018 6.12519 22.2018 7.01919ZM20.3386 9.1127C20.3386 7.71104 20.3386 6.32286 20.3386 4.92569C20.0556 4.92569 19.7961 4.92569 19.519 4.92569C19.519 6.32735 19.519 7.71553 19.519 9.1127C19.8079 9.1127 20.0674 9.1127 20.3386 9.1127Z" fill="#333333"/>
<path d="M17.6306 18.9538C17.6306 18.0733 17.6306 17.1883 17.6306 16.3077C17.6306 15.7057 17.9725 15.4497 18.7685 15.4497C19.5527 15.4452 20.3428 15.4452 21.1269 15.4497C21.8227 15.4542 22.1823 15.7192 22.1823 16.2448C22.1882 18.0508 22.1882 19.8568 22.1823 21.6628C22.1823 22.1884 21.8168 22.4535 21.1269 22.458C20.3133 22.4625 19.4996 22.4625 18.686 22.458C17.9784 22.4535 17.6306 22.1839 17.6306 21.6314C17.6247 20.7418 17.6306 19.8478 17.6306 18.9538ZM20.3192 21.0473C20.3192 19.6322 20.3192 18.2485 20.3192 16.8693C20.0185 16.8693 19.7531 16.8693 19.4878 16.8693C19.4878 18.2754 19.4878 19.6546 19.4878 21.0473C19.7708 21.0473 20.0244 21.0473 20.3192 21.0473Z" fill="#333333"/>
<path d="M9.29657 13.3336C9.29657 13.72 8.88974 14.0345 8.38857 14.03C7.89329 14.0255 7.46877 13.6975 7.47467 13.3246C7.48646 12.9608 7.89919 12.6508 8.37678 12.6418C8.87205 12.6328 9.29657 12.9518 9.29657 13.3336Z" fill="#333333"/>
</svg>
