<svg width="420" height="72" viewBox="0 0 420 72" fill="none" xmlns="http://www.w3.org/2000/svg">
<path d="M110.544 66.9986C109.943 67.0135 109.346 66.9084 108.788 66.6896C108.231 66.4709 107.724 66.1432 107.299 65.7263C106.875 65.3095 106.541 64.8122 106.318 64.2648C106.095 63.7174 105.988 63.1312 106.003 62.5419V9.45969C105.981 8.86856 106.083 8.27929 106.303 7.72871C106.524 7.17813 106.857 6.67807 107.284 6.2598C107.71 5.84152 108.219 5.51402 108.78 5.29776C109.341 5.0815 109.941 4.98113 110.544 5.00292C113.134 5.00292 114.898 6.82215 114.898 9.45969V36.0921L146.015 6.28111C146.386 5.87213 146.843 5.54677 147.355 5.32732C147.866 5.10787 148.42 4.99952 148.978 5.00968C151.203 5.00968 153.333 6.73423 153.333 9.00657C153.352 9.60379 153.238 10.1979 153 10.7479C152.762 11.2979 152.406 11.7906 151.954 12.1919L134.157 29.275L154.256 60.5468C154.725 61.2819 154.982 62.1279 155 62.995C154.961 64.0445 154.518 65.0406 153.762 65.7832C153.005 66.5259 151.99 66.9601 150.921 66.9986C148.978 66.9986 147.869 66.3629 147.035 64.9697L127.866 35.0912L114.898 47.5349V62.5351C114.926 63.1126 114.834 63.6896 114.628 64.2311C114.422 64.7726 114.105 65.2672 113.698 65.6848C113.29 66.1023 112.801 66.4342 112.258 66.66C111.716 66.8859 111.133 67.0011 110.544 66.9986V66.9986Z" fill="white"/>
<path d="M171.003 41.8881V9.43152C170.98 8.84449 171.08 8.25911 171.295 7.71206C171.51 7.165 171.836 6.66806 172.253 6.25234C172.67 5.83663 173.168 5.5111 173.717 5.29615C174.266 5.0812 174.854 4.98146 175.443 5.00317C177.987 5.00317 179.708 6.81079 179.708 9.43152V42.755C179.708 52.4248 185.423 59.1042 196.49 59.1042C207.556 59.1042 213.285 52.4248 213.285 42.755V9.43152C213.285 6.81079 215.013 5.00317 217.55 5.00317C218.14 4.98051 218.728 5.07955 219.278 5.29407C219.828 5.5086 220.327 5.83398 220.745 6.2498C221.163 6.66561 221.489 7.16289 221.705 7.71041C221.92 8.25794 222.02 8.8439 221.997 9.43152V41.8881C221.997 57.3437 212.476 67 196.51 67C180.545 67 171.003 57.2966 171.003 41.8881Z" fill="white"/>
<path d="M242.452 66.9986C241.863 67.0135 241.278 66.9084 240.732 66.6896C240.185 66.4709 239.689 66.1432 239.273 65.7263C238.857 65.3095 238.53 64.8122 238.311 64.2648C238.093 63.7174 237.988 63.1312 238.003 62.5419V9.45969C237.981 8.86856 238.081 8.27929 238.297 7.72871C238.513 7.17813 238.84 6.67807 239.257 6.2598C239.675 5.84152 240.174 5.51402 240.724 5.29776C241.273 5.0815 241.862 4.98113 242.452 5.00292C244.99 5.00292 246.711 6.82215 246.711 9.45969V36.0921L277.204 6.28111C277.568 5.87213 278.015 5.54677 278.517 5.32732C279.018 5.10787 279.56 4.99952 280.107 5.00968C282.287 5.00968 284.373 6.73423 284.373 9.00657C284.39 9.60361 284.279 10.1973 284.046 10.7471C283.813 11.2969 283.464 11.7897 283.023 12.1919L265.586 29.275L285.271 60.5468C285.73 61.2819 285.982 62.1279 286 62.995C285.962 64.0445 285.528 65.0406 284.787 65.7832C284.046 66.5259 283.051 66.9601 282.004 66.9986C280.1 66.9986 279.006 66.3629 278.196 64.9697L259.416 35.0912L246.711 47.5349V62.5351C246.74 63.1123 246.65 63.6892 246.449 64.2306C246.247 64.7721 245.938 65.2667 245.539 65.6844C245.141 66.1021 244.661 66.434 244.131 66.66C243.6 66.8859 243.028 67.0012 242.452 66.9986V66.9986Z" fill="white"/>
<path d="M302.003 41.888V9.43128C301.98 8.84425 302.08 8.25887 302.295 7.71181C302.51 7.16476 302.836 6.66781 303.253 6.25209C303.67 5.83638 304.169 5.51085 304.719 5.2959C305.268 5.08094 305.856 4.9812 306.446 5.00292C308.991 5.00292 310.713 6.81055 310.713 9.43128V42.7549C310.713 52.4247 316.431 59.1042 327.504 59.1042C338.576 59.1042 344.288 52.4247 344.288 42.7549V9.43128C344.288 6.81055 346.016 5.00292 348.555 5.00292C349.144 4.98221 349.732 5.08264 350.281 5.29795C350.829 5.51325 351.328 5.83881 351.745 6.25432C352.161 6.66983 352.488 7.16637 352.703 7.71297C352.919 8.25957 353.019 8.8445 352.997 9.43128V41.888C352.997 57.3436 343.471 67 327.497 67C311.523 67 302.003 57.2966 302.003 41.888Z" fill="white"/>
<path d="M415.779 66.9918C415.142 67.0251 414.507 66.901 413.93 66.6307C413.354 66.3604 412.854 65.9524 412.476 65.4433L377.346 21.0929V62.9009C377.302 63.9686 376.844 64.9782 376.066 65.7184C375.288 66.4585 374.251 66.8719 373.173 66.8719C372.095 66.8719 371.058 66.4585 370.28 65.7184C369.502 64.9782 369.044 63.9686 369 62.9009V9.18545C369 6.54837 370.651 5.00668 373.313 5.00668C373.962 5.0141 374.6 5.17431 375.174 5.47411C375.748 5.77391 376.242 6.20469 376.616 6.73093L411.65 50.9123V9.18545C411.618 8.62821 411.704 8.07041 411.905 7.54872C412.105 7.02704 412.415 6.55328 412.813 6.15858C413.211 5.76388 413.689 5.45719 414.216 5.25866C414.742 5.06012 415.305 4.97425 415.868 5.00668C418.345 5.00668 419.996 6.64303 419.996 9.18545V62.9009C420.02 63.4521 419.927 64.0021 419.723 64.5151C419.518 65.0282 419.207 65.4928 418.809 65.8787C418.411 66.2646 417.936 66.5632 417.413 66.755C416.891 66.9467 416.335 67.0274 415.779 66.9918V66.9918Z" fill="white"/>
<path d="M29.7794 25.5596C31.2979 27.1223 33.3564 28 35.5025 28C37.6487 28 39.7071 27.1223 41.2257 25.5596L65.734 0.305081C65.8294 0.206834 65.9097 0.103417 66 0H59.1001L37.7632 21.9865C37.1523 22.5799 36.3445 22.9104 35.505 22.9104C34.6655 22.9104 33.8577 22.5799 33.2469 21.9865L11.8999 0H5C5.09033 0.103417 5.17563 0.206834 5.27098 0.305081L29.7794 25.5596Z" fill="white"/>
<path d="M36 13C36.5632 13.0025 37.1213 12.8947 37.6416 12.6828C38.1619 12.471 38.6341 12.1594 39.0306 11.7662L51 0H43.9592L36 7.81903L28.0459 0H21L32.9694 11.7662C33.3664 12.1587 33.8387 12.4699 34.3589 12.6817C34.8791 12.8935 35.4369 13.0016 36 13V13Z" fill="white"/>
<path d="M32.9745 60.2314L21 72H28.0459L36 64.1643L43.9592 72H51L39.0306 60.2314C38.2264 59.4428 37.1376 59 36.0025 59C34.8675 59 33.7787 59.4428 32.9745 60.2314Z" fill="white"/>
<path d="M41.2166 46.4424C39.6984 44.8785 37.6394 44 35.4925 44C33.3456 44 31.2866 44.8785 29.7684 46.4424L5.27102 71.6949C5.17566 71.7932 5.09034 71.8966 5 72H11.886L33.2314 50.01C33.8334 49.3987 34.6447 49.056 35.49 49.056C36.3352 49.056 37.1465 49.3987 37.7485 50.01L59.0889 72H66C65.9097 71.8966 65.8294 71.7932 65.734 71.6949L41.2166 46.4424Z" fill="white"/>
<path d="M24.6486 41.8222C26.1544 40.2767 27 38.1829 27 36C27 33.8171 26.1544 31.7233 24.6486 30.1778L0.294207 5.26035C0.199463 5.14804 0.0947448 5.08678 0 5V11.9887L21.2029 33.7002C21.7925 34.3125 22.123 35.1377 22.123 35.9974C22.123 36.8572 21.7925 37.6824 21.2029 38.2947L0 60.0062V67C0.0947448 66.9132 0.199463 66.8469 0.294207 66.755L24.6486 41.8222Z" fill="white"/>
<path d="M13 36C13.0021 35.4376 12.8941 34.8804 12.6823 34.361C12.4704 33.8415 12.159 33.3702 11.7662 32.9745L0 21V28.0459L7.81903 36L0 43.9592V51L11.7662 39.0306C12.1594 38.6341 12.471 38.1619 12.6828 37.6416C12.8947 37.1213 13.0025 36.5632 13 36V36Z" fill="white"/>
<path d="M59.2295 39.0306L71 51V43.9592L63.1764 36L71 28.0459V21L59.2295 32.9745C58.4421 33.7787 58 34.8675 58 36.0025C58 37.1376 58.4421 38.2264 59.2295 39.0306Z" fill="white"/>
<path d="M46.3514 30.1856C44.8456 31.7297 44 33.8216 44 36.0025C44 38.1835 44.8456 40.2754 46.3514 41.8195L70.7058 66.7297C70.8005 66.8266 70.9003 66.9082 71 67V59.987L49.7921 38.3003C49.2026 37.6885 48.872 36.8641 48.872 36.0051C48.872 35.1461 49.2026 34.3217 49.7921 33.7099L71 12.0181V5L70.7058 5.27032L46.3514 30.1856Z" fill="white"/>
</svg>
